<svg width="153" height="159" viewBox="0 0 153 159" fill="none" xmlns="http://www.w3.org/2000/svg">
<g filter="url(#filter0_d)">
<path d="M35.4078 58.1675C55.3889 46.2659 79.9362 50.8677 89.7122 54.6562C79.2675 54.2591 71.3855 57.7868 68.7501 59.6004C63.7789 60.9797 55.1147 73.4341 51.404 79.4889C46.7783 91.115 34.5239 96.0237 28.975 97.0248C28.4904 96.1108 25.447 92.9595 25.1884 78.9049C24.9815 67.6612 31.9151 60.3951 35.4078 58.1675Z" fill="white"/>
<path d="M34.6402 56.8788L34.6205 56.8905L34.6012 56.9028C30.7846 59.3371 23.4699 67.0423 23.6886 78.9325C23.8198 86.0596 24.6579 90.5145 25.5687 93.3512C26.0258 94.7746 26.499 95.7838 26.904 96.5128C27.1055 96.8756 27.285 97.1597 27.4243 97.375C27.4563 97.4245 27.4827 97.4651 27.5061 97.501C27.5379 97.5497 27.564 97.5898 27.591 97.6322C27.6116 97.6644 27.6263 97.688 27.6369 97.7057C27.6463 97.7212 27.6499 97.728 27.6499 97.7279L28.1629 98.6956L29.2413 98.501C32.2037 97.9665 36.8423 96.4181 41.3506 93.5006C45.8395 90.5957 50.2807 86.279 52.749 80.1652C54.5872 77.1756 57.6099 72.6649 60.7733 68.7314C62.3752 66.7394 63.9893 64.9255 65.4846 63.538C67.0244 62.1092 68.2757 61.2887 69.1511 61.0458L69.3933 60.9786L69.6004 60.8361C71.9754 59.2017 79.5404 55.7705 89.6552 56.1552L90.2542 53.2576C85.2016 51.2995 76.4444 49.167 66.4076 49.0282C56.3644 48.8893 44.9362 50.746 34.6402 56.8788Z" stroke="black" stroke-opacity="0.11" stroke-width="3"/>
<path d="M47.418 134.257C28.3584 124.083 23.069 113.124 22.8067 108.917C21.9251 109.845 20.59 113.36 22.3026 119.996C24.4434 128.29 38.7713 138.989 46.7422 141.832C55.1687 144.837 70.4717 152.184 96.2889 143.446C116.943 136.455 119.86 122.885 118.736 116.974C115.218 124.012 109.086 129.887 91.7739 138.02C97.2957 137.282 105.522 132.968 108.945 130.903C104.93 133.732 94.3608 144.119 67.3734 141.64C45.7835 139.657 34.7908 130.449 31.9931 126.093C39.8972 133.401 45.5697 134.581 47.418 134.257Z" fill="white"/>
<path d="M48.115 135.658L51.9651 134.984L48.1244 132.934C38.7394 127.924 32.815 122.759 29.2212 118.396C25.5948 113.993 24.4081 110.495 24.3038 108.823L24.0897 105.388L21.7192 107.884C20.9712 108.671 20.3442 110.14 20.0936 112.128C19.8361 114.172 19.9551 116.902 20.8502 120.371C21.4599 122.733 22.8984 125.149 24.7316 127.443C26.5778 129.754 28.8943 132.028 31.3718 134.107C36.3039 138.246 42.0324 141.744 46.2383 143.244C46.9016 143.481 47.6164 143.748 48.3837 144.035C52.3893 145.534 57.822 147.566 64.7887 148.528C73.1258 149.681 83.6408 149.31 96.7698 144.866C118.039 137.667 121.49 123.433 120.21 116.694L119.381 112.33L117.394 116.303C114.101 122.891 108.339 128.581 91.1361 136.662L91.6563 138.431C85.7251 140.118 77.8764 141.098 67.5106 140.146C59.6062 139.42 53.1876 137.714 48.115 135.658Z" stroke="black" stroke-opacity="0.11" stroke-width="3"/>
<path d="M25.1386 100.256C40.3809 127.682 79.8339 151.838 117.187 108.479C113.62 115.736 106.521 122.051 103.417 124.302C111.676 121.196 122.081 106.211 126.251 99.1069C121.998 115.64 103.33 128.429 94.5274 132.757C97.875 132.771 108.1 125.924 112.794 122.499C106.146 130.796 94.4944 135.027 89.4993 136.105C70.4178 141.733 54.4545 137.446 41.3167 129.411C32.8119 124.21 28.494 117.641 27.5471 114.75C29.0524 117.617 35.447 122.774 38.8746 125.311C36.6558 123.517 31.0772 117.308 28.3753 114.206C19.6344 103.17 18.0262 92.8697 18.3148 89.0994C18.6758 96.1353 26.4141 107.155 31.7613 113.667C29.286 109.938 26.5005 103.666 25.1386 100.256Z" fill="white"/>
<path d="M26.4497 99.5269L24.3006 100.548C21.7483 96.2161 19.9698 92.0826 19.8128 89.0225L16.8192 88.9849C16.501 93.1417 18.2246 103.665 26.977 114.855L26.1216 115.217C27.2024 118.517 31.7948 125.346 40.5341 130.691C53.9465 138.894 70.3286 143.307 89.8708 137.559C92.5012 136.985 96.7573 135.617 101.209 133.345C105.687 131.059 110.462 127.809 113.964 123.437L112.635 122.047C112.795 121.903 112.953 121.758 113.112 121.612C119.51 115.715 125.475 108.146 127.704 99.4807L124.958 98.3476C123.38 101.035 120.889 104.88 117.961 108.763L116.051 107.5C97.6704 128.836 79.0191 133.343 63.2299 129.455C47.2976 125.532 33.9248 112.977 26.4497 99.5269Z" stroke="black" stroke-opacity="0.11" stroke-width="3"/>
<path d="M22.0558 45.2533C26.6998 35.6701 32.403 30.1601 34.674 28.603C35.3915 29.6712 35.1001 33.1015 34.8647 34.6831C35.2815 34.3923 35.3769 34.157 35.3725 34.0757L36.5933 27.6588C36.9575 26.3922 38.1699 24.7784 38.7305 24.1298C42.5774 18.659 47.7116 18.1937 49.7978 18.645L48.7153 26.437C49.1796 26.6177 49.8849 26.0345 50.1795 25.7203C51.1558 24.3836 52.0597 20.4282 52.3897 18.6176C56.1571 16.4289 65.1099 15.122 69.1154 14.7421C68.1917 17.8682 69.2575 21.7357 69.9059 23.2786C70.8556 22.9456 71.2558 22.3684 71.3372 22.1214L72.5318 13.5216C76.7583 10.7381 82.0487 12.7612 84.1656 14.1207C85.6955 15.5731 85.6069 22.0374 85.3713 25.088L86.3013 24.4907L87.3969 16.6037C91.3962 16.5393 99.791 20.198 103.488 22.0354C103.293 24.2553 104.879 28.8473 105.697 30.8657L106.746 23.3112C110.292 22.9902 113.596 25.8287 114.805 27.2881C118.113 31.3894 118.376 39.1812 118.095 42.5644L118.734 42.3627L120.074 36.1077C124.136 38.2992 127.868 49.104 129.226 54.2325L128.487 54.1298C125.269 52.0943 122.24 51.3409 121.127 51.2187C131.695 56.716 135.721 65.0627 136.413 68.5489C137.468 75.3206 136.49 86.3978 135.87 91.09C132.756 96.9049 129.195 98.4926 129.241 98.16L129.413 96.9247C132.142 82.4263 131.334 73.2675 130.589 70.5004C128.775 65.9478 119.951 57.9968 115.765 54.5903C103.705 45.7474 87.913 42.2461 81.5246 41.6008C66.4562 39.5075 54.4053 41.7078 50.2634 43.0696C36.0809 46.5235 23.2703 56.4962 18.6378 61.0507C17.622 62.6046 17.3514 64.5526 17.259 64.8788C17.1851 65.1398 15.2567 80.986 14.3018 88.8764C10.7247 87.7984 9.52315 82.9661 9.3695 80.6847C9.78129 74.2201 11.3186 60.1502 14.1735 55.5876C17.0283 51.025 25.9073 45.53 29.9899 43.3528L22.0558 45.2533Z" fill="white"/>
<path d="M20.7059 44.5991L19.3244 47.4499L21.2725 46.9833C21.0969 47.1069 20.9214 47.2316 20.7465 47.3572C17.648 49.5817 14.4982 52.2408 12.9019 54.792C12.0658 56.1282 11.3887 58.0403 10.8274 60.1368C10.2577 62.2646 9.77553 64.7068 9.3746 67.1832C8.57263 72.1366 8.08081 77.3197 7.87254 80.5894L7.86629 80.6874L7.87289 80.7855C7.95975 82.0751 8.33379 84.0427 9.19483 85.8709C10.0489 87.6844 11.5017 89.5992 13.869 90.3126L15.5766 90.8273L15.7909 89.0567C16.2683 85.1118 16.9891 79.1785 17.5996 74.1991C17.9049 71.7092 18.1826 69.4589 18.3884 67.8153C18.4914 66.9932 18.5761 66.3249 18.6373 65.8549C18.668 65.6194 18.6923 65.4371 18.7098 65.3114C18.7165 65.2627 18.7219 65.2256 18.7259 65.1987C18.7551 65.0829 18.7851 64.9433 18.819 64.7852C18.9717 64.0746 19.2048 62.9893 19.8111 62.0013C24.4379 57.498 36.9182 47.8635 50.6184 44.527L50.6758 44.513L50.7319 44.4946C54.6462 43.2076 66.4656 41.0232 81.3182 43.0865L81.3459 43.0903L81.3738 43.0932C87.599 43.722 103.081 47.1633 114.848 55.7777C116.909 57.4569 120.103 60.2479 123.001 63.1715C124.457 64.6402 125.821 66.1258 126.924 67.5083C128.011 68.8718 128.78 70.0556 129.163 70.9757C129.822 73.5539 130.616 82.4229 127.939 96.6472L127.932 96.6826L127.927 96.7183L127.755 97.9536C127.709 98.2874 127.763 98.7477 128.095 99.1459C128.393 99.5036 128.762 99.6236 128.959 99.6658C129.32 99.7434 129.626 99.6741 129.723 99.6515C129.997 99.5881 130.271 99.4676 130.504 99.348C131.003 99.0922 131.636 98.6731 132.342 98.0734C133.764 96.8654 135.55 94.8656 137.192 91.7981L137.321 91.5573L137.357 91.2866C137.978 86.5884 138.986 75.3221 137.895 68.3181L137.89 68.2874L137.884 68.2569C137.347 65.5523 135.142 60.5846 130.255 55.8897L131.253 56.0285L130.676 53.8485C129.982 51.2266 128.685 47.1645 127.034 43.4585C126.209 41.6063 125.28 39.8051 124.271 38.306C123.285 36.8398 122.125 35.5097 120.786 34.7875L119.089 33.8721C118.577 31.2074 117.644 28.4183 115.973 26.3464L115.967 26.3387L115.96 26.3312C115.257 25.4821 114.002 24.2921 112.424 23.3456C110.852 22.403 108.817 21.6176 106.611 21.8173L105.425 21.9248L105.261 23.1048L105.141 23.9636C105.004 23.2201 104.945 22.599 104.983 22.1669L105.072 21.1475L104.156 20.6921C102.269 19.7544 99.197 18.3581 96.0779 17.2001C93.0343 16.0702 89.6896 15.0666 87.3728 15.1038L86.3457 15.1204C86.1217 14.3676 85.7762 13.5815 85.1983 13.0328L85.0954 12.9352L84.9761 12.8586C83.7621 12.0789 81.7147 11.1486 79.3694 10.7852C77.0108 10.4198 74.2223 10.6122 71.7067 12.2689L71.1395 12.6425L71.0831 13.0487L68.9738 13.2488C66.9273 13.4429 63.6352 13.8715 60.3665 14.5312C57.1559 15.1791 53.7551 16.0896 51.6362 17.3206L51.4012 17.4571L50.1149 17.1789C47.4971 16.6126 41.7635 17.2591 37.5459 23.207C37.2251 23.5839 36.7662 24.1763 36.3313 24.8439C35.9595 25.4149 35.5547 26.1169 35.2894 26.8288L35.0749 26.5094L33.8258 27.3658C31.3074 29.0925 25.4452 34.8193 20.7059 44.5991ZM70.9973 13.6665L70.3103 18.6116C70.1978 17.4185 70.2446 16.2141 70.5539 15.1671L70.9973 13.6665ZM18.7344 65.1455C18.7343 65.1462 18.7333 65.1525 18.7314 65.163C18.7334 65.1502 18.7344 65.1449 18.7344 65.1455Z" stroke="black" stroke-opacity="0.11" stroke-width="3"/>
<path d="M23.9139 60.5749C42.5867 41.1903 94.2535 30.262 126.134 68.3847C107.974 52.2796 68.5366 29.9814 23.9139 60.5749Z" fill="white"/>
<path d="M22.8336 59.5343L24.7621 61.8121C46.7223 46.7561 67.3154 44.7538 84.6356 48.4351C102.012 52.1282 116.184 61.5651 125.139 69.507L127.285 67.4224C111.012 47.9627 89.6629 41.0172 70.0407 41.4149C50.4872 41.8111 32.496 49.5036 22.8336 59.5343Z" stroke="black" stroke-opacity="0.11" stroke-width="3"/>
</g>
<defs>
<filter id="filter0_d" x="0.512695" y="0.615784" width="152.414" height="157.97" filterUnits="userSpaceOnUse" color-interpolation-filters="sRGB">
<feFlood flood-opacity="0" result="BackgroundImageFix"/>
<feColorMatrix in="SourceAlpha" type="matrix" values="0 0 0 0 0 0 0 0 0 0 0 0 0 0 0 0 0 0 127 0"/>
<feOffset dy="4"/>
<feGaussianBlur stdDeviation="2"/>
<feColorMatrix type="matrix" values="0 0 0 0 0 0 0 0 0 0 0 0 0 0 0 0 0 0 0.25 0"/>
<feBlend mode="normal" in2="BackgroundImageFix" result="effect1_dropShadow"/>
<feBlend mode="normal" in="SourceGraphic" in2="effect1_dropShadow" result="shape"/>
</filter>
</defs>
</svg>
