<?xml version="1.0" encoding="UTF-8" standalone="no"?><!DOCTYPE svg PUBLIC "-//W3C//DTD SVG 1.1//EN" "http://www.w3.org/Graphics/SVG/1.1/DTD/svg11.dtd"><svg width="100%" height="100%" viewBox="0 0 45 47" version="1.1" xmlns="http://www.w3.org/2000/svg" xmlns:xlink="http://www.w3.org/1999/xlink" xml:space="preserve" xmlns:serif="http://www.serif.com/" style="fill-rule:evenodd;clip-rule:evenodd;stroke-linejoin:round;stroke-miterlimit:2;"><path d="M15.051,36.054c0,0.182 -0.208,0.327 -0.471,0.327c-0.3,0.027 -0.508,-0.118 -0.508,-0.327c0,-0.181 0.208,-0.326 0.471,-0.326c0.273,-0.027 0.508,0.118 0.508,0.326Zm-2.821,-0.408c-0.064,0.182 0.118,0.39 0.39,0.445c0.236,0.09 0.508,0 0.562,-0.182c0.055,-0.181 -0.117,-0.39 -0.39,-0.471c-0.236,-0.064 -0.499,0.027 -0.562,0.208Zm4.01,-0.154c-0.263,0.063 -0.445,0.236 -0.417,0.444c0.027,0.182 0.263,0.3 0.535,0.236c0.263,-0.063 0.444,-0.236 0.417,-0.417c-0.027,-0.172 -0.272,-0.29 -0.535,-0.263Zm5.97,-34.766c-12.584,0 -22.21,9.553 -22.21,22.137c0,10.061 6.333,18.671 15.378,21.702c1.161,0.208 1.57,-0.509 1.57,-1.098c0,-0.563 -0.028,-3.666 -0.028,-5.571c0,0 -6.35,1.361 -7.684,-2.703c0,0 -1.034,-2.641 -2.522,-3.321c0,0 -2.078,-1.424 0.145,-1.397c0,0 2.259,0.181 3.502,2.341c1.987,3.502 5.316,2.494 6.614,1.896c0.208,-1.452 0.798,-2.459 1.451,-3.058c-5.071,-0.562 -10.188,-1.297 -10.188,-10.025c0,-2.495 0.689,-3.747 2.141,-5.344c-0.236,-0.589 -1.007,-3.021 0.236,-6.16c1.896,-0.59 6.26,2.45 6.26,2.45c1.815,-0.508 3.765,-0.772 5.698,-0.772c1.932,0 3.883,0.264 5.697,0.772c0,0 4.364,-3.049 6.26,-2.45c1.243,3.148 0.472,5.571 0.236,6.16c1.452,1.606 2.341,2.858 2.341,5.344c0,8.755 -5.344,9.454 -10.415,10.025c0.834,0.717 1.542,2.078 1.542,4.21c0,3.057 -0.027,6.841 -0.027,7.585c0,0.589 0.417,1.306 1.569,1.097c9.073,-3.012 15.224,-11.622 15.224,-21.683c0,-12.584 -10.207,-22.137 -22.79,-22.137Zm-13.391,31.291c-0.118,0.091 -0.091,0.3 0.063,0.472c0.145,0.145 0.354,0.209 0.472,0.091c0.118,-0.091 0.091,-0.3 -0.064,-0.472c-0.145,-0.145 -0.354,-0.209 -0.471,-0.091Zm-0.98,-0.735c-0.064,0.118 0.027,0.263 0.208,0.354c0.146,0.091 0.327,0.064 0.39,-0.063c0.064,-0.118 -0.027,-0.264 -0.208,-0.354c-0.182,-0.055 -0.327,-0.027 -0.39,0.063Zm2.939,3.23c-0.145,0.118 -0.091,0.39 0.118,0.563c0.209,0.208 0.472,0.235 0.59,0.09c0.118,-0.118 0.063,-0.39 -0.118,-0.562c-0.2,-0.209 -0.472,-0.236 -0.59,-0.091Zm-1.034,-1.334c-0.145,0.091 -0.145,0.327 0,0.536c0.145,0.208 0.39,0.299 0.508,0.208c0.145,-0.118 0.145,-0.353 0,-0.562c-0.127,-0.209 -0.363,-0.3 -0.508,-0.182Z" style="fill:#fff;fill-rule:nonzero;"/></svg>